<svg xmlns="http://www.w3.org/2000/svg" width="900" height="700" viewBox="0 0 900 700" role="img" aria-label="IKEA desk mock image one">
  <defs>
    <linearGradient id="bg" x1="0" y1="0" x2="1" y2="1">
      <stop offset="0" stop-color="#f8fafc"/>
      <stop offset="1" stop-color="#e0f2fe"/>
    </linearGradient>
    <filter id="shadow" x="-20%" y="-20%" width="140%" height="140%">
      <feDropShadow dx="0" dy="18" stdDeviation="18" flood-color="#0f172a" flood-opacity=".16"/>
    </filter>
  </defs>
  <rect width="900" height="700" fill="url(#bg)"/>
  <circle cx="720" cy="120" r="96" fill="#dbeafe"/>
  <circle cx="164" cy="568" r="130" fill="#fef3c7"/>
  <g filter="url(#shadow)">
    <rect x="190" y="318" width="520" height="46" rx="12" fill="#f8f1e7"/>
    <rect x="214" y="364" width="32" height="180" rx="12" fill="#9ca3af"/>
    <rect x="654" y="364" width="32" height="180" rx="12" fill="#9ca3af"/>
    <rect x="308" y="238" width="176" height="94" rx="18" fill="#ffffff"/>
    <rect x="330" y="260" width="132" height="10" rx="5" fill="#cbd5e1"/>
    <rect x="330" y="286" width="86" height="10" rx="5" fill="#cbd5e1"/>
    <rect x="538" y="212" width="72" height="106" rx="14" fill="#1f2937"/>
    <rect x="550" y="226" width="48" height="68" rx="8" fill="#334155"/>
  </g>
  <text x="450" y="620" text-anchor="middle" font-family="Arial, sans-serif" font-size="34" font-weight="700" fill="#0f172a">IKEA Desk</text>
</svg>
